# xmcd CD database file
#
# Track frame offsets:
#	150
#	12555
#	22487
#	36090
#	48400
#	59062
#	72192
#	83757
#	92512
#	104345
#	119535
#	132932
#	145100
#	152645
#	162552
#	174512
#	185782
#	196602
#	207592
#	218122
#	231940
#	243617
#	256735
#	268870
#	280137
#
# Disc length: 3875 seconds
#
# Revision: 0
# Processed by: cddbd v1.5.2PL0 Copyright (c) Steve Scherf et al.
# Submitted via: CDex 1.70beta2
#
DISCID=7c0f2119
DTITLE=Various Artist - Country Classics
DYEAR=1998
DGENRE=Country
TTITLE0==Kenny Rogers - Reuben James
TTITLE1==Frankie Lane - I Believe
TTITLE2==Willie Nelson - You'll Always Have Someone
TTITLE3==Freddy Fender - Wasted Days And Wasted Nights
TTITLE4==Waylon Jennings - Burning Memories
TTITLE5==Donna Fargo - Daddy
TTITLE6==George Jones - Your Tender Years
TTITLE7==Patsy Cline - Come On In (And Make Yourself Home)
TTITLE8==Roy Drusky - Take These Chains From My Heart
TTITLE9==Barbara Fairchild - Slippin' Away
TTITLE10==Kenny Rogers - Shine On Ruby Mountain
TTITLE11==Stonewall Jackson - Ol' Blue
TTITLE12==George Jones - Ragged But Right
TTITLE13==Donna Fargo - Sticks And Stones
TTITLE14==Frankie Lane - High Noon
TTITLE15==Roy Dursky - The Last Letter
TTITLE16==Freddy Fender - Wild Side Of Life
TTITLE17==Stonewall Jackson - Should I Go Home
TTITLE18==Waylon Jennings - Dream Baby
TTITLE19==Barbara Fairchild - Crazy Love
TTITLE20==Patsy Cline - Cry Not For Me
TTITLE21==Kenny Rogers - Ruby Don't Take Your Love To Town
TTITLE22==Roy Drusky - Lukenbach Texas
TTITLE23==Donna Fargo - Wishful Thinking
TTITLE24==Waylon Jennings - Money
EXTD=YEAR: 1998
EXTT0=
EXTT1=
EXTT2=
EXTT3=
EXTT4=
EXTT5=
EXTT6=
EXTT7=
EXTT8=
EXTT9=
EXTT10=
EXTT11=
EXTT12=
EXTT13=
EXTT14=
EXTT15=
EXTT16=
EXTT17=
EXTT18=
EXTT19=
EXTT20=
EXTT21=
EXTT22=
EXTT23=
EXTT24=
PLAYORDER=
